<svg width="256" height="256" viewBox="0 0 256 256" fill="none" xmlns="http://www.w3.org/2000/svg">
<path d="M230.15 117.1L210.25 41C209.617 38.5284 208.209 36.3247 206.232 34.7118C204.255 33.099 201.813 32.1618 199.265 32.0377C196.716 31.9135 194.195 32.609 192.071 34.0221C189.946 35.4352 188.331 37.4916 187.46 39.89L169.78 88H86.2202L68.5402 39.87C67.6679 37.472 66.0503 35.4166 63.9246 34.005C61.7988 32.5935 59.2768 31.9001 56.7283 32.0264C54.1797 32.1528 51.7386 33.0923 49.763 34.7072C47.7873 36.3221 46.381 38.5275 45.7502 41L25.8502 117.1C22.9111 128.3 23.4407 140.127 27.369 151.019C31.2972 161.911 38.4391 171.355 47.8502 178.1L121.12 229.86C123.13 231.279 125.53 232.041 127.99 232.041C130.45 232.041 132.85 231.279 134.86 229.86L208.13 178.1C217.545 171.357 224.691 161.915 228.623 151.023C232.555 140.131 233.087 128.302 230.15 117.1ZM58.0002 57.5L73.1302 98.76C73.6952 100.297 74.7183 101.624 76.0613 102.561C77.4043 103.498 79.0026 104 80.6402 104H175.36C176.998 104 178.596 103.498 179.939 102.561C181.282 101.624 182.305 100.297 182.87 98.76L198 57.5L211.07 107.5L128 166.21L44.9002 107.5L58.0002 57.5ZM40.6802 124.11L114.13 176L93.4102 190.65L57.0902 165C50.7521 160.448 45.8424 154.184 42.9361 146.942C40.0298 139.701 39.2473 131.781 40.6802 124.11ZM128 215.11L107.27 200.46L128 185.8L148.73 200.44L128 215.11ZM198.91 165L162.59 190.66L141.87 176L215.32 124.1C216.755 131.772 215.974 139.694 213.067 146.938C210.161 154.182 205.25 160.447 198.91 165Z" fill="white"/>
</svg>
