<svg width="24" height="20" viewBox="0 0 24 24" fill="none" xmlns="http://www.w3.org/2000/svg">
<g clip-path="url(#clip0_148_18)">
<rect width="24" height="24" fill="black" fill-opacity="0.2"/>
<path d="M15.5828 23.497C15.6498 23.689 15.5398 23.845 15.3358 23.845H9.07378C8.66578 23.845 8.22378 23.534 8.08578 23.15L0.0427824 0.784003C-0.105218 0.393003 0.148782 0.115003 0.527782 0.160003L6.91978 0.776003C7.32478 0.815003 7.76378 1.159 7.89778 1.543L15.5828 23.497ZM23.4728 0.160003L17.0808 0.776003C16.6748 0.815003 16.2368 1.159 16.1028 1.544L12.2758 12.534L15.9538 23.043L23.9588 0.783003C24.0958 0.400003 23.8788 0.121003 23.4738 0.160003" fill="white"/>
</g>
<defs>
<clipPath id="clip0_148_18">
<rect width="24" height="24" fill="white"/>
</clipPath>
</defs>
</svg>
